<?xml version="1.0" encoding="UTF-8"?><svg id="Layer_1" xmlns="http://www.w3.org/2000/svg" viewBox="0 0 565 240"><defs><style>.cls-1{fill:#1733cf;}</style></defs><g><path d="m310.1,108.6l-45.84.09.09,42.51,51.09-.1.03,12.77-66.31.14-.24-117.92,63.68-.13.03,12.77-48.46.1.08,37.27,45.84-.09.03,12.6Z"/><path d="m334.99,45.92l15.22-.03.21,105.15,50.39-.1.03,12.77-65.61.13-.24-117.92Z"/><path d="m432.79,45.72l.24,117.92-15.22.03-.24-117.92,15.22-.03Z"/><path d="m521.88,62.68l-43.39.09-4.31,29.23c2.62-.35,5.07-.71,9.27-.72,8.75-.02,17.5,1.89,24.51,6.07,8.93,5.06,16.3,14.84,16.33,29.18.05,22.22-17.59,38.88-42.26,38.93-12.42.03-22.93-3.45-28.36-6.94l3.83-11.73c4.73,2.79,14.01,6.27,24.33,6.25,14.52-.03,26.92-9.5,26.89-24.72-.21-14.7-10.02-25.17-32.77-25.13-6.47.01-11.55.72-15.74,1.26l7.24-54.6,54.41-.11.03,12.95Z"/></g><g id="nerd"><path class="cls-1" d="m37.78,46.06c0-6.11-4.96-11.07-11.07-11.07s-11.07,4.96-11.07,11.07,4.96,11.07,11.07,11.07c6.11,0,11.07-4.96,11.07-11.07Zm-11.07,3.69c-2.04,0-3.69-1.65-3.69-3.69s1.65-3.69,3.69-3.69,3.69,1.65,3.69,3.69c0,2.04-1.65,3.69-3.69,3.69Z"/><circle class="cls-1" cx="152.19" cy="101.42" r="7.38"/><circle class="cls-1" cx="93.14" cy="101.42" r="7.38"/><path class="cls-1" d="m210.14,199.06c-1.44-1.44-3.78-1.44-5.22,0l-2.83,2.83-2.83-2.83c-1.42-1.46-3.76-1.5-5.22-.08s-1.5,3.76-.08,5.22c.03.03.05.05.08.08l2.83,2.83-2.83,2.83c-1.46,1.42-1.49,3.76-.07,5.22,1.42,1.46,3.76,1.49,5.22.07.02-.02.04-.04.07-.07l2.83-2.83,2.83,2.83c1.42,1.46,3.76,1.49,5.22.07,1.46-1.42,1.49-3.76.07-5.22-.02-.02-.04-.04-.07-.07l-2.83-2.83,2.83-2.83c1.44-1.44,1.44-3.78,0-5.22Z"/><circle class="cls-1" cx="222.32" cy="167.85" r="3.69"/><path class="cls-1" d="m148.48,130.94h-51.61c-3.05.13-5.64,2.26-6.36,5.22-1.64,4.36-1.7,12.36,2.48,16.03,8.09,7.5,18.66,11.76,29.69,11.96,11.03-.2,21.6-4.46,29.69-11.96,4.17-3.68,4.12-11.67,2.48-16.03-.72-2.96-3.32-5.09-6.36-5.22Z"/><path class="cls-1" d="m207.05,73.71c-.88-1.5-2.7-2.19-4.35-1.63l-4.54,1.51c-25.52-41.69-80.01-54.8-121.7-29.28-11.94,7.31-21.98,17.35-29.29,29.3l-4.59-1.53c-1.65-.55-3.47.13-4.35,1.63l-9.14,15.59c-1.03,1.76-.44,4.02,1.32,5.05,1.76,1.03,4.02.44,5.05-1.32l7.63-13.01.44.15c-21.96,43.71-4.33,96.95,39.38,118.91,43.71,21.96,96.95,4.33,118.91-39.38,12.57-25.03,12.57-54.53,0-79.55l.39-.13,7.63,13.01c1.05,1.75,3.32,2.31,5.07,1.26,1.72-1.03,2.3-3.25,1.3-4.99l-9.14-15.59Zm-84.38-35.04c27.63.02,53.35,14.08,68.27,37.33l-20.75,6.92c-4.81-4.7-11.27-7.34-17.99-7.34h-59.05c-6.73,0-13.2,2.64-18.01,7.35l-20.74-6.91c14.92-23.26,40.65-37.32,68.28-37.34Zm29.53,44.29c10.19,0,18.45,8.26,18.45,18.45s-8.26,18.45-18.45,18.45-18.45-8.26-18.45-18.45c.01-10.19,8.27-18.44,18.45-18.45Zm-40.6,18.45c0,10.19-8.26,18.45-18.45,18.45s-18.45-8.26-18.45-18.45,8.26-18.45,18.45-18.45c10.19.01,18.44,8.27,18.45,18.45Zm92.27,18.45c.04,44.84-36.28,81.23-81.12,81.26-44.84.04-81.23-36.28-81.26-81.12-.01-13.04,3.12-25.9,9.13-37.48l19.82,6.6c-6.8,12.55-2.14,28.23,10.4,35.03,12.55,6.8,28.23,2.14,35.03-10.4,5.51-10.16,3.6-22.73-4.67-30.8h22.96c-10.2,9.97-10.38,26.32-.41,36.52,9.97,10.2,26.32,10.38,36.52.41,8.25-8.07,10.15-20.62,4.65-30.77l19.82-6.6c6.01,11.53,9.15,24.35,9.14,37.35Z"/></g><g><path d="m262.39,208.14v-22.91h16.56v2.7h-13.53v7.02h12.67v2.69h-12.67v7.8h14.06v2.7h-17.09Z"/><path d="m281.43,208.14l6.06-8.62-5.61-7.97h3.52l2.55,3.89c.48.74.86,1.36,1.16,1.86.46-.69.88-1.3,1.27-1.83l2.8-3.92h3.36l-5.73,7.81,6.17,8.78h-3.45l-3.41-5.16-.91-1.39-4.36,6.55h-3.41Z"/><path d="m299.31,214.5v-22.95h2.56v2.16c.6-.84,1.29-1.48,2.05-1.9.76-.42,1.68-.63,2.77-.63,1.42,0,2.67.36,3.75,1.09,1.08.73,1.9,1.76,2.45,3.09.55,1.33.83,2.78.83,4.37,0,1.7-.3,3.23-.91,4.59s-1.5,2.4-2.66,3.12c-1.16.72-2.38,1.09-3.66,1.09-.94,0-1.78-.2-2.52-.59-.75-.4-1.36-.9-1.84-1.5v8.08h-2.81Zm2.55-14.56c0,2.14.43,3.71,1.3,4.73.86,1.02,1.91,1.53,3.14,1.53s2.32-.53,3.21-1.59c.89-1.06,1.34-2.7,1.34-4.91s-.44-3.7-1.3-4.75c-.87-1.05-1.91-1.58-3.12-1.58s-2.26.56-3.18,1.68c-.92,1.12-1.38,2.75-1.38,4.88Z"/><path d="m317.04,208.14v-22.91h2.81v22.91h-2.81Z"/><path d="m335.04,206.09c-1.04.89-2.04,1.51-3.01,1.88-.96.36-2,.55-3.1.55-1.82,0-3.22-.45-4.2-1.34-.98-.89-1.47-2.03-1.47-3.41,0-.81.18-1.55.55-2.23.37-.67.85-1.21,1.45-1.62.6-.41,1.27-.71,2.02-.92.55-.15,1.39-.29,2.5-.42,2.27-.27,3.94-.59,5.02-.97.01-.39.02-.63.02-.73,0-1.15-.27-1.95-.8-2.42-.72-.64-1.79-.95-3.2-.95-1.32,0-2.3.23-2.93.7-.63.46-1.1,1.28-1.4,2.46l-2.75-.38c.25-1.18.66-2.13,1.23-2.85.57-.72,1.4-1.28,2.48-1.67,1.08-.39,2.34-.59,3.77-.59s2.57.17,3.45.5c.89.33,1.54.75,1.95,1.26.42.51.71,1.14.88,1.91.09.48.14,1.34.14,2.59v3.75c0,2.61.06,4.27.18,4.96.12.69.36,1.36.71,1.99h-2.94c-.29-.58-.48-1.27-.56-2.05Zm-.23-6.28c-1.02.42-2.55.77-4.59,1.06-1.16.17-1.97.35-2.45.56-.48.21-.85.51-1.11.91-.26.4-.39.85-.39,1.34,0,.75.28,1.38.85,1.88.57.5,1.4.75,2.49.75s2.05-.24,2.89-.71c.84-.47,1.46-1.12,1.86-1.95.3-.64.45-1.57.45-2.81v-1.03Z"/><path d="m342.03,188.47v-3.23h2.81v3.23h-2.81Zm0,19.67v-16.59h2.81v16.59h-2.81Z"/><path d="m349.12,208.14v-16.59h2.53v2.36c1.22-1.82,2.98-2.73,5.28-2.73,1,0,1.92.18,2.76.54.84.36,1.47.83,1.88,1.41.42.58.71,1.28.88,2.08.1.52.16,1.43.16,2.73v10.2h-2.81v-10.09c0-1.15-.11-2-.33-2.57-.22-.57-.61-1.02-1.16-1.36-.56-.34-1.21-.51-1.96-.51-1.2,0-2.23.38-3.1,1.14-.87.76-1.3,2.2-1.3,4.33v9.06h-2.81Z"/><path d="m376.04,208.14v-22.91h3.03v20.2h11.28v2.7h-14.31Z"/><path d="m393.62,188.47v-3.23h2.81v3.23h-2.81Zm0,19.67v-16.59h2.81v16.59h-2.81Z"/><path d="m400.73,208.14v-22.91h2.81v13.06l6.66-6.75h3.64l-6.34,6.16,6.98,10.44h-3.47l-5.48-8.48-1.98,1.91v6.58h-2.81Z"/><path d="m428.07,202.79l2.91.36c-.46,1.7-1.31,3.02-2.55,3.95-1.24.94-2.82,1.41-4.75,1.41-2.43,0-4.35-.75-5.77-2.24-1.42-1.49-2.13-3.59-2.13-6.29s.72-4.96,2.16-6.5c1.44-1.54,3.3-2.31,5.59-2.31s4.03.76,5.44,2.27c1.41,1.51,2.11,3.64,2.11,6.38,0,.17,0,.42-.02.75h-12.38c.1,1.82.62,3.22,1.55,4.19.93.97,2.08,1.45,3.47,1.45,1.03,0,1.91-.27,2.64-.81.73-.54,1.31-1.41,1.73-2.59Zm-9.23-4.55h9.27c-.12-1.4-.48-2.44-1.06-3.14-.9-1.08-2.06-1.62-3.48-1.62-1.29,0-2.38.43-3.26,1.3-.88.86-1.37,2.02-1.46,3.47Z"/><path d="m444.28,208.14v-22.91h3.03v22.91h-3.03Z"/><path d="m452.12,188.26v-3.27h3.02v2.58c0,1.4-.16,2.4-.48,3.02-.45.84-1.15,1.48-2.09,1.91l-.69-1.11c.56-.23.98-.59,1.26-1.09.28-.49.43-1.17.46-2.04h-1.47Z"/><path d="m459.4,208.14v-16.59h2.52v2.33c.52-.81,1.21-1.47,2.08-1.96.86-.49,1.85-.74,2.95-.74,1.23,0,2.24.26,3.02.77.79.51,1.34,1.22,1.66,2.14,1.31-1.94,3.02-2.91,5.12-2.91,1.65,0,2.91.46,3.8,1.37.89.91,1.33,2.32,1.33,4.21v11.39h-2.8v-10.45c0-1.12-.09-1.93-.27-2.43-.18-.49-.51-.89-.99-1.2-.48-.3-1.04-.45-1.69-.45-1.17,0-2.14.39-2.91,1.16-.77.78-1.16,2.02-1.16,3.73v9.64h-2.81v-10.78c0-1.25-.23-2.19-.69-2.81-.46-.62-1.21-.94-2.25-.94-.79,0-1.52.21-2.2.62-.67.42-1.16,1.03-1.46,1.83-.3.8-.45,1.96-.45,3.47v8.61h-2.81Z"/><path d="m494.17,202.14l2.95-.25c.22,1.44.73,2.52,1.52,3.24.8.72,1.76,1.09,2.88,1.09,1.35,0,2.5-.51,3.44-1.53.94-1.02,1.41-2.38,1.41-4.06s-.45-2.87-1.35-3.8c-.9-.93-2.08-1.39-3.54-1.39-.91,0-1.72.21-2.45.62-.73.41-1.3.95-1.72,1.6l-2.64-.34,2.22-11.77h11.39v2.69h-9.14l-1.23,6.16c1.38-.96,2.82-1.44,4.33-1.44,2,0,3.69.69,5.06,2.08,1.38,1.39,2.06,3.17,2.06,5.34s-.6,3.86-1.81,5.38c-1.47,1.85-3.47,2.78-6.02,2.78-2.08,0-3.78-.58-5.1-1.75-1.32-1.17-2.07-2.71-2.26-4.64Z"/></g></svg>