<?xml version="1.0" encoding="UTF-8"?><svg id="Layer_1" xmlns="http://www.w3.org/2000/svg" viewBox="0 0 593 246"><defs><style>.cls-1{fill:#1733cf;}</style></defs><g><path d="m331.1,122.54l-45.84.09.09,42.51,51.09-.1.03,12.77-66.31.13-.24-117.92,63.68-.13.03,12.77-48.46.1.08,37.27,45.84-.09.03,12.6Z"/><path d="m355.99,59.85l15.22-.03.21,105.15,50.39-.1.03,12.77-65.61.13-.24-117.92Z"/><path d="m453.79,59.65l.24,117.92-15.22.03-.24-117.92,15.22-.03Z"/><path d="m542.87,76.61l-43.39.09-4.31,29.23c2.62-.35,5.07-.71,9.27-.72,8.75-.02,17.5,1.89,24.51,6.07,8.93,5.05,16.3,14.84,16.33,29.18.05,22.22-17.59,38.88-42.26,38.93-12.42.03-22.93-3.45-28.36-6.94l3.83-11.73c4.73,2.79,14.01,6.27,24.33,6.25,14.52-.03,26.92-9.5,26.89-24.72-.21-14.7-10.02-25.17-32.77-25.13-6.47.01-11.55.72-15.74,1.26l7.24-54.6,54.41-.11.03,12.95Z"/></g><g id="nerd"><path class="cls-1" d="m52.78,46.99c0-6.11-4.96-11.07-11.07-11.07s-11.07,4.96-11.07,11.07,4.96,11.07,11.07,11.07c6.11,0,11.07-4.96,11.07-11.07Zm-11.07,3.69c-2.04,0-3.69-1.65-3.69-3.69s1.65-3.69,3.69-3.69,3.69,1.65,3.69,3.69c0,2.04-1.65,3.69-3.69,3.69Z"/><circle class="cls-1" cx="167.19" cy="102.35" r="7.38"/><circle class="cls-1" cx="108.14" cy="102.35" r="7.38"/><path class="cls-1" d="m225.13,199.99c-1.44-1.44-3.78-1.44-5.22,0l-2.83,2.83-2.83-2.83c-1.42-1.46-3.76-1.5-5.22-.08s-1.5,3.76-.08,5.22c.03.03.05.05.08.08l2.83,2.83-2.83,2.83c-1.46,1.42-1.49,3.76-.07,5.22,1.42,1.46,3.76,1.49,5.22.07.02-.02.04-.04.07-.07l2.83-2.83,2.83,2.83c1.42,1.46,3.76,1.49,5.22.07,1.46-1.42,1.49-3.76.07-5.22-.02-.02-.04-.04-.07-.07l-2.83-2.83,2.83-2.83c1.44-1.44,1.44-3.78,0-5.22Z"/><circle class="cls-1" cx="237.31" cy="168.78" r="3.69"/><path class="cls-1" d="m163.47,131.87h-51.61c-3.05.13-5.64,2.26-6.36,5.22-1.64,4.36-1.7,12.36,2.48,16.03,8.09,7.5,18.66,11.76,29.69,11.96,11.03-.2,21.6-4.46,29.69-11.96,4.17-3.68,4.12-11.67,2.48-16.03-.72-2.96-3.32-5.09-6.36-5.22Z"/><path class="cls-1" d="m222.04,74.65c-.88-1.5-2.7-2.19-4.35-1.63l-4.54,1.51c-25.52-41.69-80.01-54.8-121.7-29.28-11.94,7.31-21.98,17.35-29.29,29.3l-4.59-1.53c-1.65-.55-3.47.13-4.35,1.63l-9.14,15.59c-1.03,1.76-.44,4.02,1.32,5.05,1.76,1.03,4.02.44,5.05-1.32l7.63-13.01.44.15c-21.96,43.71-4.33,96.95,39.38,118.91,43.71,21.96,96.95,4.33,118.91-39.38,12.57-25.03,12.57-54.53,0-79.55l.39-.13,7.63,13.01c1.05,1.75,3.32,2.31,5.07,1.26,1.72-1.03,2.3-3.25,1.3-4.99l-9.14-15.59Zm-84.38-35.04c27.63.02,53.35,14.08,68.27,37.33l-20.75,6.92c-4.81-4.7-11.27-7.34-17.99-7.34h-59.05c-6.73,0-13.2,2.64-18.01,7.35l-20.74-6.91c14.92-23.26,40.65-37.32,68.28-37.34Zm29.53,44.29c10.19,0,18.45,8.26,18.45,18.45s-8.26,18.45-18.45,18.45-18.45-8.26-18.45-18.45c.01-10.19,8.27-18.44,18.45-18.45Zm-40.6,18.45c0,10.19-8.26,18.45-18.45,18.45s-18.45-8.26-18.45-18.45,8.26-18.45,18.45-18.45c10.19.01,18.44,8.27,18.45,18.45Zm92.27,18.45c.04,44.84-36.28,81.23-81.12,81.26-44.84.04-81.23-36.28-81.26-81.12-.01-13.04,3.12-25.9,9.13-37.48l19.82,6.6c-6.8,12.55-2.14,28.23,10.4,35.03,12.55,6.8,28.23,2.14,35.03-10.4,5.51-10.16,3.6-22.73-4.67-30.8h22.96c-10.2,9.97-10.38,26.32-.41,36.52,9.97,10.2,26.32,10.38,36.52.41,8.25-8.07,10.15-20.62,4.65-30.77l19.82-6.6c6.01,11.53,9.15,24.35,9.14,37.35Z"/></g></svg>