<?xml version="1.0" encoding="UTF-8"?><svg id="Layer_1" xmlns="http://www.w3.org/2000/svg" viewBox="0 0 1200 630"><defs><style>.cls-1{fill:#1733cf;}</style></defs><g><path d="m654.62,273.3l-94.47.19.18,87.62,105.29-.21.05,26.32-136.66.28-.5-243.03,131.25-.27.05,26.32-99.88.2.16,76.8,94.47-.19.05,25.96Z"/><path d="m705.91,144.1l31.37-.06.44,216.71,103.85-.21.05,26.32-135.22.28-.5-243.03Z"/><path d="m907.46,143.69l.5,243.03-31.37.06-.5-243.03,31.37-.06Z"/><path d="m1091.07,178.65l-89.42.18-8.89,60.24c5.41-.73,10.45-1.46,19.11-1.48,18.03-.04,36.07,3.89,50.51,12.52,18.41,10.42,33.6,30.58,33.66,60.15.09,45.79-36.25,80.12-87.1,80.23-25.6.05-47.25-7.11-58.44-14.3l7.88-24.17c9.75,5.75,28.87,12.92,50.15,12.88,29.93-.06,55.49-19.58,55.43-50.96-.42-30.29-20.66-51.88-67.54-51.79-13.34.03-23.8,1.49-32.45,2.59l14.92-112.53,112.14-.23.05,26.68Z"/></g><g id="nerd"><path class="cls-1" d="m93.37,144.38c0-12.6-10.22-22.82-22.82-22.82s-22.82,10.22-22.82,22.82,10.22,22.82,22.82,22.82c12.6-.01,22.8-10.22,22.82-22.82Zm-22.82,7.61c-4.2,0-7.61-3.41-7.61-7.61s3.41-7.61,7.61-7.61,7.61,3.41,7.61,7.61c0,4.2-3.41,7.6-7.61,7.61Z"/><circle class="cls-1" cx="329.16" cy="258.47" r="15.21"/><circle class="cls-1" cx="207.47" cy="258.47" r="15.21"/><path class="cls-1" d="m448.58,459.7c-2.97-2.97-7.79-2.97-10.76,0l-5.83,5.83-5.83-5.83c-2.92-3.02-7.74-3.09-10.76-.16-3.02,2.92-3.09,7.74-.16,10.76.05.06.11.11.16.16l5.83,5.83-5.83,5.83c-3.01,2.93-3.07,7.75-.14,10.76,2.93,3.01,7.75,3.07,10.76.14.05-.04.09-.09.14-.14l5.83-5.83,5.83,5.83c2.93,3.01,7.75,3.07,10.76.13,3.01-2.93,3.07-7.75.13-10.76-.04-.05-.09-.09-.13-.13l-5.83-5.83,5.83-5.84c2.97-2.97,2.97-7.78,0-10.75Z"/><circle class="cls-1" cx="473.68" cy="395.38" r="7.61"/><path class="cls-1" d="m321.5,319.32h-106.37c-6.28.27-11.62,4.66-13.11,10.76-3.39,8.98-3.5,25.46,5.11,33.04,16.67,15.46,38.45,24.24,61.19,24.65,22.73-.41,44.52-9.19,61.19-24.65,8.6-7.58,8.49-24.06,5.1-33.04-1.49-6.1-6.83-10.49-13.11-10.76Z"/><path class="cls-1" d="m442.21,201.38c-1.82-3.1-5.56-4.5-8.97-3.36l-9.35,3.12c-52.6-85.92-164.89-112.94-250.81-60.34-24.61,15.07-45.3,35.76-60.36,60.38l-9.47-3.16c-3.41-1.14-7.15.26-8.97,3.36l-18.84,32.12c-2.12,3.62-.91,8.29,2.71,10.41,3.62,2.12,8.29.91,10.41-2.71l15.72-26.81.91.3c-45.26,90.08-8.93,199.81,81.16,245.07,90.08,45.26,199.81,8.93,245.07-81.16,25.91-51.58,25.91-112.37-.02-163.94l.8-.27,15.72,26.81c2.17,3.6,6.84,4.76,10.44,2.59,3.54-2.13,4.73-6.7,2.68-10.29l-18.85-32.13Zm-173.89-72.21c56.93.03,109.94,29.01,140.7,76.92l-42.76,14.25c-9.91-9.69-23.22-15.12-37.08-15.12h-121.7c-13.88,0-27.2,5.44-37.12,15.15l-42.75-14.25c30.75-47.93,83.77-76.92,140.71-76.96Zm60.85,91.27c21,0,38.03,17.03,38.03,38.03s-17.03,38.03-38.03,38.03-38.03-17.03-38.03-38.03c.02-20.99,17.04-38.01,38.03-38.03Zm-83.67,38.03c0,21-17.03,38.03-38.03,38.03s-38.03-17.03-38.03-38.03,17.03-38.03,38.03-38.03c20.99.02,38.01,17.04,38.03,38.03Zm190.15,38.03c.08,92.42-74.77,167.4-167.19,167.48-92.42.08-167.4-74.77-167.48-167.19-.02-26.88,6.43-53.37,18.81-77.23l40.84,13.61c-14.02,25.86-4.42,58.18,21.44,72.2,25.86,14.02,58.18,4.42,72.2-21.44,11.35-20.93,7.42-46.85-9.61-63.48h47.32c-21.01,20.55-21.39,54.24-.84,75.26,20.55,21.01,54.24,21.39,75.26.84,17-16.62,20.91-42.5,9.58-63.4l40.84-13.61c12.39,23.76,18.85,50.17,18.83,76.97Z"/></g><g><path d="m556.25,478.42v-47.21h34.13v5.57h-27.89v14.46h26.12v5.54h-26.12v16.07h28.98v5.57h-35.23Z"/><path d="m595.51,478.42l12.49-17.78-11.56-16.42h7.25l5.25,8.02c.99,1.52,1.78,2.8,2.38,3.83.94-1.42,1.81-2.67,2.61-3.77l5.76-8.08h6.92l-11.82,16.1,12.72,18.1h-7.12l-7.02-10.63-1.87-2.87-8.98,13.49h-7.02Z"/><path d="m632.35,491.52v-47.3h5.28v4.44c1.25-1.74,2.65-3.04,4.22-3.91,1.57-.87,3.47-1.3,5.7-1.3,2.92,0,5.5.75,7.73,2.25,2.23,1.5,3.92,3.62,5.06,6.36,1.14,2.74,1.71,5.74,1.71,9,0,3.5-.63,6.65-1.88,9.45-1.26,2.8-3.08,4.95-5.47,6.44-2.39,1.49-4.91,2.24-7.55,2.24-1.93,0-3.67-.41-5.2-1.22-1.54-.82-2.8-1.85-3.78-3.09v16.65h-5.8Zm5.25-30.01c0,4.4.89,7.65,2.67,9.76,1.78,2.1,3.94,3.16,6.47,3.16s4.78-1.09,6.62-3.27c1.84-2.18,2.75-5.56,2.75-10.13s-.9-7.62-2.69-9.79c-1.79-2.17-3.93-3.25-6.42-3.25s-4.65,1.15-6.55,3.46c-1.9,2.31-2.85,5.66-2.85,10.06Z"/><path d="m668.89,478.42v-47.21h5.8v47.21h-5.8Z"/><path d="m705.99,474.2c-2.15,1.82-4.21,3.11-6.2,3.86-1.99.75-4.12,1.13-6.39,1.13-3.76,0-6.64-.92-8.66-2.75-2.02-1.84-3.03-4.18-3.03-7.04,0-1.67.38-3.2,1.14-4.59.76-1.38,1.76-2.5,2.99-3.33s2.62-1.47,4.17-1.9c1.14-.3,2.86-.59,5.15-.87,4.68-.56,8.13-1.22,10.34-2,.02-.79.03-1.3.03-1.51,0-2.36-.55-4.02-1.64-4.99-1.48-1.31-3.68-1.96-6.6-1.96-2.73,0-4.74.48-6.04,1.43-1.3.96-2.26,2.65-2.88,5.07l-5.67-.77c.52-2.43,1.36-4.38,2.54-5.88,1.18-1.49,2.89-2.64,5.12-3.45s4.82-1.21,7.76-1.21,5.29.34,7.12,1.03c1.82.69,3.17,1.55,4.03,2.59.86,1.04,1.46,2.36,1.8,3.94.19.99.29,2.77.29,5.35v7.73c0,5.39.12,8.8.37,10.22.25,1.43.73,2.8,1.46,4.11h-6.05c-.6-1.2-.99-2.61-1.16-4.22Zm-.48-12.95c-2.1.86-5.26,1.59-9.47,2.19-2.38.34-4.07.73-5.06,1.16-.99.43-1.75,1.06-2.29,1.88-.54.83-.81,1.74-.81,2.75,0,1.55.58,2.83,1.75,3.86,1.17,1.03,2.88,1.55,5.14,1.55s4.22-.49,5.96-1.47c1.74-.98,3.02-2.31,3.83-4.01.62-1.31.93-3.24.93-5.8v-2.13Z"/><path d="m720.38,437.87v-6.67h5.8v6.67h-5.8Zm0,40.54v-34.2h5.8v34.2h-5.8Z"/><path d="m735,478.42v-34.2h5.22v4.86c2.51-3.76,6.14-5.64,10.88-5.64,2.06,0,3.96.37,5.68,1.11,1.73.74,3.02,1.71,3.88,2.91.86,1.2,1.46,2.63,1.8,4.28.21,1.07.32,2.95.32,5.64v21.03h-5.8v-20.8c0-2.36-.23-4.13-.68-5.3-.45-1.17-1.25-2.1-2.4-2.8-1.15-.7-2.5-1.05-4.04-1.05-2.47,0-4.6.78-6.39,2.35-1.79,1.57-2.69,4.54-2.69,8.92v18.68h-5.8Z"/><path d="m790.49,478.42v-47.21h6.25v41.64h23.25v5.57h-29.5Z"/><path d="m826.71,437.87v-6.67h5.8v6.67h-5.8Zm0,40.54v-34.2h5.8v34.2h-5.8Z"/><path d="m841.36,478.42v-47.21h5.8v26.92l13.72-13.91h7.5l-13.07,12.69,14.39,21.51h-7.15l-11.3-17.49-4.09,3.93v13.56h-5.8Z"/><path d="m897.72,467.4l5.99.74c-.95,3.5-2.69,6.21-5.25,8.15s-5.82,2.9-9.79,2.9c-5,0-8.97-1.54-11.9-4.62-2.93-3.08-4.4-7.4-4.4-12.96s1.48-10.22,4.44-13.4c2.96-3.18,6.8-4.77,11.53-4.77s8.31,1.56,11.21,4.67c2.9,3.11,4.35,7.49,4.35,13.14,0,.34-.01.86-.03,1.55h-25.5c.21,3.76,1.28,6.63,3.19,8.63,1.91,2,4.29,2.99,7.15,2.99,2.12,0,3.94-.56,5.44-1.67,1.5-1.12,2.69-2.9,3.57-5.35Zm-19.03-9.37h19.1c-.26-2.88-.99-5.03-2.19-6.47-1.85-2.23-4.24-3.35-7.18-3.35-2.66,0-4.9.89-6.71,2.67-1.81,1.78-2.82,4.17-3.01,7.15Z"/><path d="m931.11,478.42v-47.21h6.25v47.21h-6.25Z"/><path d="m947.28,437.46v-6.73h6.21v5.31c0,2.88-.33,4.95-1,6.21-.92,1.74-2.36,3.05-4.32,3.93l-1.42-2.29c1.16-.47,2.02-1.22,2.59-2.24.57-1.02.88-2.42.95-4.2h-3.03Z"/><path d="m962.28,478.42v-34.2h5.18v4.8c1.07-1.67,2.5-3.02,4.28-4.04,1.78-1.02,3.81-1.53,6.09-1.53,2.53,0,4.61.53,6.23,1.58,1.62,1.05,2.76,2.52,3.43,4.41,2.71-3.99,6.23-5.99,10.56-5.99,3.39,0,6,.94,7.83,2.82,1.82,1.88,2.74,4.77,2.74,8.68v23.47h-5.76v-21.54c0-2.32-.19-3.99-.56-5.01-.38-1.02-1.06-1.84-2.04-2.46-.99-.62-2.15-.93-3.48-.93-2.4,0-4.4.8-5.99,2.4-1.59,1.6-2.38,4.16-2.38,7.68v19.87h-5.8v-22.22c0-2.58-.47-4.51-1.42-5.8s-2.49-1.93-4.64-1.93c-1.63,0-3.14.43-4.52,1.29-1.38.86-2.39,2.11-3.01,3.77-.62,1.65-.93,4.04-.93,7.15v17.74h-5.8Z"/><path d="m1033.93,466.05l6.09-.52c.45,2.96,1.5,5.19,3.14,6.68,1.64,1.49,3.62,2.24,5.94,2.24,2.79,0,5.15-1.05,7.08-3.16,1.93-2.1,2.9-4.89,2.9-8.37s-.93-5.91-2.79-7.83c-1.86-1.91-4.29-2.87-7.29-2.87-1.87,0-3.55.42-5.06,1.27-1.5.85-2.68,1.95-3.54,3.3l-5.44-.71,4.57-24.25h23.48v5.54h-18.84l-2.54,12.69c2.83-1.97,5.81-2.96,8.92-2.96,4.12,0,7.6,1.43,10.43,4.28,2.83,2.86,4.25,6.53,4.25,11.01s-1.25,7.96-3.74,11.08c-3.03,3.82-7.16,5.73-12.4,5.73-4.29,0-7.8-1.2-10.51-3.61-2.72-2.4-4.27-5.59-4.65-9.56Z"/></g></svg>